<svg width="385" height="102" viewBox="0 0 385 102" fill="none" xmlns="http://www.w3.org/2000/svg">
<path d="M49.7169 47.0129C51.6345 44.9348 53.5373 42.676 55.4497 40.5635C60.2086 35.3321 65.0512 30.1776 69.9759 25.1022C77.4224 17.5372 85.0291 9.80617 93.6105 3.51527C95.4517 2.25127 98.2057 0.0553082 100.48 0.000797229C103.343 -0.0677545 103.464 4.30237 103.284 6.25767C102.505 14.7371 96.9229 25.1734 90.5489 30.6195C90.2661 29.9305 90.3374 25.3921 90.3303 24.279C90.8207 24.3426 95.5868 24.4008 95.8224 24.3063C95.5295 24.0698 95.0489 24.151 94.6748 24.1821C93.5373 24.1647 92.3997 24.1642 91.2621 24.1809C90.918 24.1142 90.574 24.1976 90.2286 24.0539L90.1185 24.1623C88.1467 24.1431 86.1748 24.1454 84.2031 24.1692C83.3665 24.0958 82.7086 24.08 81.8759 24.1775C82.0654 24.3129 86.3911 21.6432 86.6409 21.6037C88.2701 21.6295 92.138 21.7781 93.6294 21.5994C93.9571 23.1381 89.8206 29.462 90.4032 30.7951C88.2721 32.5743 86.0311 34.6085 83.9446 36.4599C77.3745 42.3306 70.9444 48.3562 64.6601 54.5318C61.1865 57.9358 57.7642 61.3918 54.3948 64.8988C50.8119 68.6161 47.218 72.5362 44.0739 76.6403C43.38 77.5459 42.8609 78.5449 42.2234 79.4744C48.634 78.4831 55.9458 76.2746 60.0138 70.7532C61.4275 68.8342 61.6382 66.7226 61.3183 64.4076C63.797 62.3705 66.321 60.416 68.7978 58.3754C69.9741 57.4056 71.1584 56.4452 72.3501 55.4944C72.895 55.0578 73.9383 54.1892 74.4987 53.8656C79.2381 67.2547 77.1142 80.0161 64.1364 87.8278L62.4464 88.9268C56.9456 92.3625 51.3028 95.8011 45.5293 98.7688C43.8056 99.6549 41.4551 100.799 39.6236 101.384C38.4039 101.787 37.1278 101.991 35.8434 101.989C26.1927 102.019 24.9182 91.9832 24.1647 84.59C23.6105 79.1214 23.3345 73.6282 23.3379 68.1317C24.7244 71.0031 25.4514 73.1462 28.3641 75.0316C27.0885 66.5945 26.8043 60.94 28.0119 52.581C28.1837 51.6249 28.3734 50.672 28.5807 49.723C28.9914 47.4213 29.7033 45.0813 30.3629 42.8414C32.6171 35.1839 35.8028 28.8867 39.8603 22.0875C42.6714 17.2894 45.829 12.7027 49.3078 8.36377C51.2623 5.90764 53.3424 3.2371 55.8051 1.3051C56.61 0.673594 58.8011 -0.211134 59.2566 1.07995C60.4641 4.5034 58.9559 9.07919 58.1173 12.5172C56.5019 17.907 54.4002 23.7972 51.7143 28.6964C50.1859 31.4844 48.0931 34.3864 46.4649 37.125C43.951 41.4183 41.4796 45.7362 39.0506 50.0783C38.7813 50.5704 38.4611 51.1928 38.1698 51.6581L37.0036 53.7918L43.31 53.8044C43.0113 54.3287 42.6686 54.9225 42.3327 55.4204C39.1382 60.157 37.5982 65.05 35.7255 70.3592C37.4938 68.4239 39.31 65.9877 41.0996 63.967C46.2711 58.1277 51.9108 51.9429 57.9626 47.0547C55.3905 47.1591 52.3098 47.0514 49.7169 47.0129Z" fill="white"/>
<path d="M24.1982 76.5898C24.7857 76.625 25.2301 76.6272 25.3198 77.2957C25.2143 77.6495 25.1397 77.6916 24.8784 77.9731C24.5255 78.0388 24.2661 78.0053 23.955 77.8479C23.5398 77.3 23.8081 77.0428 24.1982 76.5898Z" fill="white"/>
<path d="M0 28.2248C1.69407 28.0704 3.85476 28.1705 5.5816 28.1498C5.97051 28.1452 6.06815 28.1432 6.27335 28.3664C5.16889 28.2996 0.576107 28.4415 0 28.2248Z" fill="white"/>
<path d="M51.1194 28.1611L51.2295 28.0527C51.5749 28.1964 51.9189 28.113 52.2631 28.1798C52.8563 28.3177 55.135 28.341 55.6758 28.1809C56.0498 28.1499 56.5304 28.0686 56.8233 28.3051C56.5877 28.3996 51.8216 28.3415 51.3312 28.2779C51.3383 29.3909 51.267 33.9294 51.5498 34.6183L51.4041 34.7939C50.8216 33.4609 51.4381 29.788 51.1104 28.2493L51.1194 28.1611Z" fill="white"/>
<path d="M52.2617 28.1841C53.3992 28.1674 54.5369 28.1679 55.6744 28.1852C55.1337 28.3453 52.855 28.322 52.2617 28.1841Z" fill="white"/>
<path d="M123.182 51V18.2727H136.286C138.694 18.2727 140.702 18.6296 142.311 19.3434C143.919 20.0572 145.128 21.0479 145.938 22.3157C146.748 23.5728 147.153 25.0217 147.153 26.6623C147.153 27.9407 146.897 29.0646 146.385 30.0341C145.874 30.9929 145.171 31.7812 144.276 32.3991C143.392 33.0064 142.38 33.4379 141.24 33.6935V34.0131C142.486 34.0664 143.653 34.418 144.74 35.0678C145.837 35.7177 146.726 36.6286 147.408 37.8004C148.09 38.9616 148.431 40.3466 148.431 41.9553C148.431 43.6918 147.999 45.2418 147.137 46.6055C146.284 47.9585 145.022 49.0291 143.349 49.8175C141.677 50.6058 139.615 51 137.165 51H123.182ZM130.102 45.343H135.743C137.671 45.343 139.077 44.9755 139.961 44.2404C140.846 43.4947 141.288 42.5039 141.288 41.2681C141.288 40.3626 141.069 39.5636 140.633 38.8711C140.196 38.1786 139.573 37.6353 138.763 37.2411C137.964 36.8469 137.01 36.6499 135.903 36.6499H130.102V45.343ZM130.102 31.9677H135.231C136.18 31.9677 137.021 31.8026 137.756 31.4723C138.502 31.1314 139.088 30.652 139.514 30.0341C139.951 29.4162 140.169 28.6758 140.169 27.8129C140.169 26.6303 139.748 25.6768 138.907 24.9524C138.076 24.228 136.893 23.8658 135.359 23.8658H130.102V31.9677ZM159.174 18.2727V51H152.366V18.2727H159.174ZM171.187 51.4634C169.621 51.4634 168.225 51.1918 167 50.6484C165.775 50.0945 164.805 49.2795 164.091 48.2035C163.388 47.1168 163.037 45.7638 163.037 44.1445C163.037 42.7809 163.287 41.6357 163.788 40.7088C164.289 39.782 164.97 39.0362 165.833 38.4716C166.696 37.907 167.676 37.4808 168.774 37.1932C169.882 36.9055 171.043 36.7031 172.257 36.5859C173.685 36.4368 174.835 36.2983 175.709 36.1705C176.583 36.032 177.216 35.8295 177.611 35.5632C178.005 35.2969 178.202 34.9027 178.202 34.3807V34.2848C178.202 33.2727 177.882 32.4897 177.243 31.9357C176.615 31.3817 175.72 31.1048 174.558 31.1048C173.333 31.1048 172.358 31.3764 171.634 31.9197C170.91 32.4524 170.43 33.1236 170.196 33.9332L163.9 33.4219C164.219 31.9304 164.848 30.6413 165.785 29.5547C166.723 28.4574 167.932 27.6158 169.413 27.0298C170.904 26.4332 172.63 26.1349 174.59 26.1349C175.954 26.1349 177.259 26.2947 178.506 26.6143C179.763 26.9339 180.876 27.4293 181.845 28.1005C182.825 28.7717 183.598 29.6346 184.162 30.6893C184.727 31.7333 185.009 32.9851 185.009 34.4446V51H178.553V47.5962H178.362C177.968 48.3633 177.44 49.0398 176.78 49.6257C176.119 50.201 175.325 50.6538 174.399 50.984C173.472 51.3036 172.401 51.4634 171.187 51.4634ZM173.136 46.7653C174.138 46.7653 175.022 46.5682 175.789 46.174C176.556 45.7692 177.158 45.2259 177.595 44.544C178.031 43.8622 178.25 43.0898 178.25 42.2269V39.6222C178.037 39.7607 177.744 39.8885 177.371 40.0057C177.009 40.1122 176.599 40.2134 176.14 40.3093C175.682 40.3945 175.224 40.4744 174.766 40.549C174.308 40.6129 173.893 40.6715 173.52 40.7248C172.721 40.842 172.023 41.0284 171.426 41.2841C170.83 41.5398 170.366 41.886 170.036 42.3228C169.706 42.7489 169.541 43.2816 169.541 43.9208C169.541 44.8477 169.876 45.5561 170.547 46.0462C171.229 46.5256 172.092 46.7653 173.136 46.7653ZM200.942 51.4794C198.427 51.4794 196.265 50.9467 194.454 49.8814C192.653 48.8054 191.268 47.3139 190.299 45.407C189.34 43.5 188.861 41.3054 188.861 38.8232C188.861 36.3089 189.345 34.1037 190.315 32.2074C191.295 30.3004 192.685 28.8143 194.486 27.7489C196.286 26.6729 198.427 26.1349 200.91 26.1349C203.051 26.1349 204.926 26.5238 206.535 27.3015C208.143 28.0792 209.416 29.1712 210.354 30.5774C211.291 31.9837 211.808 33.6349 211.904 35.5312H205.48C205.299 34.3061 204.819 33.3207 204.042 32.5749C203.275 31.8185 202.268 31.4403 201.021 31.4403C199.967 31.4403 199.045 31.728 198.257 32.3033C197.479 32.8679 196.872 33.6935 196.435 34.7802C195.998 35.8668 195.78 37.1825 195.78 38.7273C195.78 40.2933 195.993 41.625 196.419 42.7223C196.856 43.8196 197.469 44.6559 198.257 45.2312C199.045 45.8065 199.967 46.0941 201.021 46.0941C201.799 46.0941 202.497 45.9343 203.115 45.6147C203.743 45.2951 204.26 44.8317 204.665 44.2244C205.08 43.6065 205.352 42.8661 205.48 42.0032H211.904C211.797 43.8782 211.286 45.5295 210.37 46.957C209.464 48.3739 208.213 49.4819 206.615 50.2809C205.017 51.0799 203.126 51.4794 200.942 51.4794ZM221.991 43.9368L222.007 35.771H222.998L230.86 26.4545H238.675L228.112 38.7912H226.498L221.991 43.9368ZM215.823 51V18.2727H222.631V51H215.823ZM231.164 51L223.941 40.3093L228.479 35.4993L239.138 51H231.164ZM241.703 18.2727H250.236L259.249 40.2614H259.633L268.645 18.2727H277.179V51H270.467V29.6985H270.195L261.726 50.8402H257.156L248.686 29.6186H248.415V51H241.703V18.2727ZM289.312 51.4634C287.746 51.4634 286.35 51.1918 285.125 50.6484C283.9 50.0945 282.93 49.2795 282.216 48.2035C281.513 47.1168 281.162 45.7638 281.162 44.1445C281.162 42.7809 281.412 41.6357 281.913 40.7088C282.414 39.782 283.095 39.0362 283.958 38.4716C284.821 37.907 285.801 37.4808 286.899 37.1932C288.007 36.9055 289.168 36.7031 290.382 36.5859C291.81 36.4368 292.96 36.2983 293.834 36.1705C294.708 36.032 295.341 35.8295 295.736 35.5632C296.13 35.2969 296.327 34.9027 296.327 34.3807V34.2848C296.327 33.2727 296.007 32.4897 295.368 31.9357C294.74 31.3817 293.845 31.1048 292.683 31.1048C291.458 31.1048 290.483 31.3764 289.759 31.9197C289.035 32.4524 288.555 33.1236 288.321 33.9332L282.025 33.4219C282.344 31.9304 282.973 30.6413 283.91 29.5547C284.848 28.4574 286.057 27.6158 287.538 27.0298C289.029 26.4332 290.755 26.1349 292.715 26.1349C294.079 26.1349 295.384 26.2947 296.631 26.6143C297.888 26.9339 299.001 27.4293 299.97 28.1005C300.95 28.7717 301.723 29.6346 302.287 30.6893C302.852 31.7333 303.134 32.9851 303.134 34.4446V51H296.678V47.5962H296.487C296.093 48.3633 295.565 49.0398 294.905 49.6257C294.244 50.201 293.45 50.6538 292.524 50.984C291.597 51.3036 290.526 51.4634 289.312 51.4634ZM291.261 46.7653C292.263 46.7653 293.147 46.5682 293.914 46.174C294.681 45.7692 295.283 45.2259 295.72 44.544C296.156 43.8622 296.375 43.0898 296.375 42.2269V39.6222C296.162 39.7607 295.869 39.8885 295.496 40.0057C295.134 40.1122 294.724 40.2134 294.265 40.3093C293.807 40.3945 293.349 40.4744 292.891 40.549C292.433 40.6129 292.018 40.6715 291.645 40.7248C290.846 40.842 290.148 41.0284 289.551 41.2841C288.955 41.5398 288.491 41.886 288.161 42.3228C287.831 42.7489 287.666 43.2816 287.666 43.9208C287.666 44.8477 288.001 45.5561 288.672 46.0462C289.354 46.5256 290.217 46.7653 291.261 46.7653ZM321.032 26.4545V31.5682H306.251V26.4545H321.032ZM309.606 20.5739H316.414V43.4574C316.414 44.0859 316.51 44.576 316.702 44.9276C316.893 45.2685 317.16 45.5082 317.501 45.6467C317.852 45.7852 318.257 45.8544 318.715 45.8544C319.035 45.8544 319.354 45.8278 319.674 45.7745C319.993 45.7106 320.238 45.6626 320.409 45.6307L321.48 50.6964C321.139 50.8029 320.659 50.9254 320.041 51.0639C319.423 51.2131 318.672 51.3036 317.788 51.3356C316.148 51.3995 314.709 51.1811 313.474 50.6804C312.248 50.1797 311.295 49.402 310.613 48.3473C309.931 47.2926 309.596 45.9609 309.606 44.3523V20.5739ZM338.083 26.4545V31.5682H323.301V26.4545H338.083ZM326.657 20.5739H333.465V43.4574C333.465 44.0859 333.561 44.576 333.752 44.9276C333.944 45.2685 334.21 45.5082 334.551 45.6467C334.903 45.7852 335.308 45.8544 335.766 45.8544C336.085 45.8544 336.405 45.8278 336.725 45.7745C337.044 45.7106 337.289 45.6626 337.46 45.6307L338.53 50.6964C338.189 50.8029 337.71 50.9254 337.092 51.0639C336.474 51.2131 335.723 51.3036 334.839 51.3356C333.198 51.3995 331.76 51.1811 330.524 50.6804C329.299 50.1797 328.346 49.402 327.664 48.3473C326.982 47.2926 326.646 45.9609 326.657 44.3523V20.5739ZM353 51.4794C350.475 51.4794 348.302 50.968 346.48 49.9453C344.669 48.9119 343.274 47.4524 342.294 45.5668C341.314 43.6705 340.824 41.4279 340.824 38.8391C340.824 36.3143 341.314 34.0984 342.294 32.1914C343.274 30.2844 344.653 28.7983 346.433 27.733C348.222 26.6676 350.321 26.1349 352.729 26.1349C354.348 26.1349 355.855 26.396 357.251 26.918C358.657 27.4293 359.882 28.2017 360.926 29.2351C361.981 30.2685 362.801 31.5682 363.387 33.1342C363.973 34.6896 364.266 36.5114 364.266 38.5994V40.4691H343.54V36.2504H357.858C357.858 35.2702 357.645 34.402 357.219 33.6456C356.793 32.8892 356.202 32.2979 355.445 31.8718C354.7 31.435 353.831 31.2166 352.841 31.2166C351.807 31.2166 350.891 31.4563 350.092 31.9357C349.304 32.4045 348.686 33.0384 348.238 33.8374C347.791 34.6257 347.562 35.5046 347.551 36.4741V40.4851C347.551 41.6996 347.775 42.7489 348.222 43.6332C348.68 44.5174 349.325 45.1992 350.156 45.6786C350.987 46.158 351.972 46.3977 353.112 46.3977C353.869 46.3977 354.561 46.2912 355.19 46.0781C355.818 45.8651 356.356 45.5455 356.804 45.1193C357.251 44.6932 357.592 44.1712 357.826 43.5533L364.123 43.9688C363.803 45.4815 363.148 46.8026 362.157 47.9318C361.177 49.0504 359.909 49.924 358.354 50.5526C356.809 51.1705 355.025 51.4794 353 51.4794ZM368.269 51V26.4545H374.869V30.7372H375.125C375.572 29.2138 376.323 28.0632 377.378 27.2855C378.433 26.4972 379.647 26.103 381.021 26.103C381.362 26.103 381.73 26.1243 382.124 26.1669C382.518 26.2095 382.865 26.2681 383.163 26.3427V32.3832C382.843 32.2873 382.401 32.2021 381.836 32.1275C381.272 32.0529 380.755 32.0156 380.286 32.0156C379.285 32.0156 378.39 32.234 377.602 32.6708C376.824 33.0969 376.206 33.6935 375.748 34.4606C375.301 35.2276 375.077 36.1119 375.077 37.1133V51H368.269Z" fill="white"/>
<path d="M121.159 69.9645V68.6364H130.432V69.9645H126.544V81H125.047V69.9645H121.159ZM135.092 81.1932C134.199 81.1932 133.428 80.996 132.78 80.6016C132.136 80.2031 131.639 79.6477 131.289 78.9354C130.943 78.219 130.77 77.3859 130.77 76.4361C130.77 75.4863 130.943 74.6491 131.289 73.9247C131.639 73.1963 132.126 72.6288 132.75 72.2223C133.378 71.8118 134.11 71.6065 134.947 71.6065C135.43 71.6065 135.907 71.687 136.378 71.848C136.849 72.009 137.278 72.2706 137.664 72.6328C138.05 72.991 138.358 73.4659 138.588 74.0575C138.817 74.6491 138.932 75.3776 138.932 76.2429V76.8466H131.784V75.6151H137.483C137.483 75.0919 137.378 74.625 137.169 74.2145C136.964 73.804 136.67 73.48 136.287 73.2425C135.909 73.0051 135.462 72.8864 134.947 72.8864C134.38 72.8864 133.889 73.0272 133.474 73.3089C133.064 73.5866 132.748 73.9489 132.526 74.3956C132.305 74.8423 132.194 75.3213 132.194 75.8324V76.6534C132.194 77.3537 132.315 77.9473 132.557 78.4343C132.802 78.9173 133.142 79.2855 133.577 79.5391C134.012 79.7886 134.517 79.9134 135.092 79.9134C135.466 79.9134 135.805 79.861 136.106 79.7564C136.412 79.6477 136.676 79.4867 136.897 79.2734C137.119 79.0561 137.29 78.7865 137.41 78.4645L138.787 78.8509C138.642 79.3177 138.398 79.7282 138.056 80.0824C137.714 80.4325 137.292 80.7062 136.789 80.9034C136.285 81.0966 135.72 81.1932 135.092 81.1932ZM144.866 81.1932C143.997 81.1932 143.248 80.9879 142.62 80.5774C141.992 80.1669 141.509 79.6014 141.171 78.881C140.833 78.1606 140.664 77.3376 140.664 76.4119C140.664 75.4702 140.837 74.6391 141.183 73.9187C141.534 73.1942 142.021 72.6288 142.644 72.2223C143.272 71.8118 144.005 71.6065 144.842 71.6065C145.494 71.6065 146.081 71.7273 146.605 71.9688C147.128 72.2102 147.556 72.5483 147.89 72.983C148.224 73.4176 148.432 73.9247 148.512 74.5043H147.088C146.979 74.0817 146.737 73.7074 146.363 73.3814C145.993 73.0514 145.494 72.8864 144.866 72.8864C144.311 72.8864 143.824 73.0312 143.405 73.321C142.99 73.6068 142.666 74.0112 142.433 74.5344C142.204 75.0536 142.089 75.6634 142.089 76.3636C142.089 77.08 142.202 77.7038 142.427 78.2351C142.656 78.7663 142.978 79.1789 143.393 79.4727C143.811 79.7665 144.302 79.9134 144.866 79.9134C145.236 79.9134 145.572 79.849 145.874 79.7202C146.176 79.5914 146.432 79.4062 146.641 79.1648C146.85 78.9233 146.999 78.6335 147.088 78.2955H148.512C148.432 78.8428 148.233 79.3358 147.915 79.7745C147.601 80.2092 147.184 80.5553 146.665 80.8129C146.15 81.0664 145.55 81.1932 144.866 81.1932ZM152.02 75.4219V81H150.595V68.6364H152.02V73.1761H152.14C152.358 72.6972 152.684 72.3169 153.118 72.0352C153.557 71.7494 154.141 71.6065 154.869 71.6065C155.501 71.6065 156.054 71.7333 156.529 71.9869C157.004 72.2364 157.372 72.6207 157.634 73.1399C157.9 73.6551 158.032 74.3111 158.032 75.108V81H156.608V75.2045C156.608 74.468 156.417 73.8986 156.034 73.4961C155.656 73.0896 155.131 72.8864 154.459 72.8864C153.992 72.8864 153.573 72.985 153.203 73.1822C152.837 73.3794 152.547 73.6671 152.334 74.0455C152.124 74.4238 152.02 74.8826 152.02 75.4219ZM162.064 75.4219V81H160.639V71.7273H162.015V73.1761H162.136C162.353 72.7053 162.683 72.3269 163.126 72.0412C163.569 71.7514 164.14 71.6065 164.841 71.6065C165.468 71.6065 166.018 71.7353 166.489 71.9929C166.96 72.2464 167.326 72.6328 167.587 73.152C167.849 73.6671 167.98 74.3191 167.98 75.108V81H166.555V75.2045C166.555 74.4761 166.366 73.9086 165.988 73.5021C165.609 73.0916 165.09 72.8864 164.43 72.8864C163.975 72.8864 163.569 72.985 163.211 73.1822C162.857 73.3794 162.577 73.6671 162.372 74.0455C162.166 74.4238 162.064 74.8826 162.064 75.4219ZM174.35 81.1932C173.513 81.1932 172.779 80.994 172.147 80.5955C171.519 80.1971 171.028 79.6397 170.674 78.9233C170.324 78.2069 170.149 77.3698 170.149 76.4119C170.149 75.446 170.324 74.6029 170.674 73.8825C171.028 73.162 171.519 72.6026 172.147 72.2042C172.779 71.8058 173.513 71.6065 174.35 71.6065C175.187 71.6065 175.92 71.8058 176.548 72.2042C177.18 72.6026 177.671 73.162 178.021 73.8825C178.375 74.6029 178.552 75.446 178.552 76.4119C178.552 77.3698 178.375 78.2069 178.021 78.9233C177.671 79.6397 177.18 80.1971 176.548 80.5955C175.92 80.994 175.187 81.1932 174.35 81.1932ZM174.35 79.9134C174.986 79.9134 175.509 79.7504 175.92 79.4244C176.33 79.0984 176.634 78.6697 176.831 78.1385C177.029 77.6072 177.127 77.0317 177.127 76.4119C177.127 75.7921 177.029 75.2146 176.831 74.6793C176.634 74.1441 176.33 73.7114 175.92 73.3814C175.509 73.0514 174.986 72.8864 174.35 72.8864C173.714 72.8864 173.191 73.0514 172.781 73.3814C172.37 73.7114 172.066 74.1441 171.869 74.6793C171.672 75.2146 171.573 75.7921 171.573 76.4119C171.573 77.0317 171.672 77.6072 171.869 78.1385C172.066 78.6697 172.37 79.0984 172.781 79.4244C173.191 79.7504 173.714 79.9134 174.35 79.9134ZM182.152 68.6364V81H180.727V68.6364H182.152ZM188.528 81.1932C187.691 81.1932 186.956 80.994 186.325 80.5955C185.697 80.1971 185.206 79.6397 184.852 78.9233C184.501 78.2069 184.326 77.3698 184.326 76.4119C184.326 75.446 184.501 74.6029 184.852 73.8825C185.206 73.162 185.697 72.6026 186.325 72.2042C186.956 71.8058 187.691 71.6065 188.528 71.6065C189.365 71.6065 190.098 71.8058 190.725 72.2042C191.357 72.6026 191.848 73.162 192.199 73.8825C192.553 74.6029 192.73 75.446 192.73 76.4119C192.73 77.3698 192.553 78.2069 192.199 78.9233C191.848 79.6397 191.357 80.1971 190.725 80.5955C190.098 80.994 189.365 81.1932 188.528 81.1932ZM188.528 79.9134C189.164 79.9134 189.687 79.7504 190.098 79.4244C190.508 79.0984 190.812 78.6697 191.009 78.1385C191.206 77.6072 191.305 77.0317 191.305 76.4119C191.305 75.7921 191.206 75.2146 191.009 74.6793C190.812 74.1441 190.508 73.7114 190.098 73.3814C189.687 73.0514 189.164 72.8864 188.528 72.8864C187.892 72.8864 187.369 73.0514 186.958 73.3814C186.548 73.7114 186.244 74.1441 186.047 74.6793C185.85 75.2146 185.751 75.7921 185.751 76.4119C185.751 77.0317 185.85 77.6072 186.047 78.1385C186.244 78.6697 186.548 79.0984 186.958 79.4244C187.369 79.7504 187.892 79.9134 188.528 79.9134ZM198.647 84.6705C197.959 84.6705 197.368 84.5819 196.873 84.4048C196.378 84.2318 195.965 84.0024 195.635 83.7166C195.309 83.4349 195.049 83.133 194.856 82.8111L195.991 82.0142C196.12 82.1832 196.283 82.3764 196.48 82.5938C196.677 82.8151 196.947 83.0063 197.289 83.1673C197.635 83.3323 198.088 83.4148 198.647 83.4148C199.396 83.4148 200.014 83.2337 200.501 82.8714C200.988 82.5092 201.231 81.9418 201.231 81.169V79.2855H201.111C201.006 79.4545 200.857 79.6638 200.664 79.9134C200.475 80.1589 200.201 80.3782 199.843 80.5714C199.489 80.7605 199.01 80.8551 198.406 80.8551C197.657 80.8551 196.985 80.678 196.39 80.3239C195.798 79.9697 195.329 79.4545 194.983 78.7784C194.641 78.1023 194.47 77.2812 194.47 76.3153C194.47 75.3655 194.637 74.5385 194.971 73.8342C195.305 73.1258 195.77 72.5785 196.366 72.1921C196.961 71.8017 197.649 71.6065 198.43 71.6065C199.034 71.6065 199.513 71.7071 199.867 71.9084C200.225 72.1056 200.499 72.331 200.688 72.5845C200.881 72.834 201.03 73.0393 201.135 73.2003H201.28V71.7273H202.656V81.2656C202.656 82.0625 202.475 82.7105 202.113 83.2095C201.754 83.7126 201.272 84.0808 200.664 84.3143C200.06 84.5517 199.388 84.6705 198.647 84.6705ZM198.599 79.5753C199.171 79.5753 199.654 79.4445 200.048 79.1829C200.442 78.9213 200.742 78.545 200.948 78.054C201.153 77.563 201.255 76.9754 201.255 76.2912C201.255 75.6231 201.155 75.0335 200.954 74.5224C200.752 74.0112 200.455 73.6108 200.06 73.321C199.666 73.0312 199.179 72.8864 198.599 72.8864C197.995 72.8864 197.492 73.0393 197.09 73.3452C196.691 73.651 196.392 74.0616 196.19 74.5767C195.993 75.0919 195.895 75.6634 195.895 76.2912C195.895 76.9351 195.995 77.5046 196.196 77.9996C196.402 78.4906 196.704 78.877 197.102 79.1587C197.504 79.4364 198.004 79.5753 198.599 79.5753ZM205.264 81V71.7273H206.689V81H205.264ZM205.988 70.1818C205.711 70.1818 205.471 70.0872 205.27 69.8981C205.073 69.7089 204.974 69.4815 204.974 69.2159C204.974 68.9503 205.073 68.7229 205.27 68.5337C205.471 68.3446 205.711 68.25 205.988 68.25C206.266 68.25 206.504 68.3446 206.701 68.5337C206.902 68.7229 207.003 68.9503 207.003 69.2159C207.003 69.4815 206.902 69.7089 206.701 69.8981C206.504 70.0872 206.266 70.1818 205.988 70.1818ZM213.186 81.1932C212.292 81.1932 211.522 80.996 210.874 80.6016C210.23 80.2031 209.733 79.6477 209.383 78.9354C209.037 78.219 208.863 77.3859 208.863 76.4361C208.863 75.4863 209.037 74.6491 209.383 73.9247C209.733 73.1963 210.22 72.6288 210.844 72.2223C211.471 71.8118 212.204 71.6065 213.041 71.6065C213.524 71.6065 214.001 71.687 214.472 71.848C214.943 72.009 215.371 72.2706 215.758 72.6328C216.144 72.991 216.452 73.4659 216.681 74.0575C216.911 74.6491 217.025 75.3776 217.025 76.2429V76.8466H209.878V75.6151H215.577C215.577 75.0919 215.472 74.625 215.263 74.2145C215.057 73.804 214.764 73.48 214.381 73.2425C214.003 73.0051 213.556 72.8864 213.041 72.8864C212.474 72.8864 211.983 73.0272 211.568 73.3089C211.157 73.5866 210.842 73.9489 210.62 74.3956C210.399 74.8423 210.288 75.3213 210.288 75.8324V76.6534C210.288 77.3537 210.409 77.9473 210.65 78.4343C210.896 78.9173 211.236 79.2855 211.671 79.5391C212.105 79.7886 212.61 79.9134 213.186 79.9134C213.56 79.9134 213.898 79.861 214.2 79.7564C214.506 79.6477 214.77 79.4867 214.991 79.2734C215.212 79.0561 215.383 78.7865 215.504 78.4645L216.881 78.8509C216.736 79.3177 216.492 79.7282 216.15 80.0824C215.808 80.4325 215.385 80.7062 214.882 80.9034C214.379 81.0966 213.814 81.1932 213.186 81.1932ZM225.761 73.804L224.481 74.1662C224.401 73.9529 224.282 73.7456 224.125 73.5444C223.972 73.3391 223.763 73.1701 223.497 73.0373C223.231 72.9045 222.891 72.8381 222.477 72.8381C221.909 72.8381 221.436 72.9689 221.058 73.2305C220.684 73.488 220.497 73.8161 220.497 74.2145C220.497 74.5687 220.625 74.8484 220.883 75.0536C221.141 75.2589 221.543 75.4299 222.09 75.5668L223.467 75.9048C224.296 76.1061 224.914 76.4139 225.32 76.8285C225.727 77.239 225.93 77.7682 225.93 78.4162C225.93 78.9474 225.777 79.4223 225.471 79.8409C225.169 80.2595 224.747 80.5895 224.203 80.831C223.66 81.0724 223.028 81.1932 222.308 81.1932C221.362 81.1932 220.579 80.9879 219.959 80.5774C219.34 80.1669 218.947 79.5672 218.782 78.7784L220.134 78.4403C220.263 78.9394 220.507 79.3137 220.865 79.5632C221.227 79.8127 221.7 79.9375 222.284 79.9375C222.948 79.9375 223.475 79.7966 223.865 79.5149C224.26 79.2292 224.457 78.8871 224.457 78.4886C224.457 78.1667 224.344 77.897 224.119 77.6797C223.893 77.4583 223.547 77.2933 223.08 77.1847L221.535 76.8224C220.686 76.6212 220.062 76.3093 219.664 75.8867C219.269 75.4601 219.072 74.9268 219.072 74.2869C219.072 73.7637 219.219 73.3009 219.513 72.8984C219.81 72.496 220.215 72.18 220.726 71.9506C221.241 71.7212 221.825 71.6065 222.477 71.6065C223.394 71.6065 224.115 71.8078 224.638 72.2102C225.165 72.6127 225.539 73.1439 225.761 73.804ZM233.049 81V68.6364H237.226C238.196 68.6364 238.989 68.8114 239.605 69.1616C240.225 69.5077 240.684 69.9766 240.981 70.5682C241.279 71.1598 241.428 71.8198 241.428 72.5483C241.428 73.2768 241.279 73.9388 240.981 74.5344C240.688 75.1301 240.233 75.605 239.617 75.9592C239.001 76.3093 238.213 76.4844 237.251 76.4844H234.256V75.1562H237.202C237.866 75.1562 238.4 75.0415 238.802 74.8121C239.205 74.5827 239.496 74.2728 239.677 73.8825C239.863 73.488 239.955 73.0433 239.955 72.5483C239.955 72.0533 239.863 71.6106 239.677 71.2202C239.496 70.8298 239.203 70.5239 238.796 70.3026C238.39 70.0772 237.85 69.9645 237.178 69.9645H234.546V81H233.049ZM251.229 71.7273L247.8 81H246.351L242.922 71.7273H244.468L247.027 79.1165H247.124L249.684 71.7273H251.229ZM257.142 71.7273V72.9347H252.337V71.7273H257.142ZM253.737 69.5057H255.162V78.3438C255.162 78.7462 255.221 79.0481 255.337 79.2493C255.458 79.4465 255.611 79.5793 255.796 79.6477C255.985 79.7121 256.184 79.7443 256.394 79.7443C256.551 79.7443 256.679 79.7363 256.78 79.7202C256.881 79.7 256.961 79.6839 257.022 79.6719L257.311 80.9517C257.215 80.9879 257.08 81.0241 256.907 81.0604C256.734 81.1006 256.514 81.1207 256.249 81.1207C255.846 81.1207 255.452 81.0342 255.066 80.8612C254.683 80.6881 254.365 80.4245 254.112 80.0703C253.862 79.7161 253.737 79.2694 253.737 78.7301V69.5057ZM264.26 81V68.6364H265.757V79.6719H271.504V81H264.26ZM277.28 71.7273V72.9347H272.475V71.7273H277.28ZM273.875 69.5057H275.3V78.3438C275.3 78.7462 275.358 79.0481 275.475 79.2493C275.596 79.4465 275.749 79.5793 275.934 79.6477C276.123 79.7121 276.322 79.7443 276.531 79.7443C276.688 79.7443 276.817 79.7363 276.918 79.7202C277.018 79.7 277.099 79.6839 277.159 79.6719L277.449 80.9517C277.352 80.9879 277.218 81.0241 277.045 81.0604C276.872 81.1006 276.652 81.1207 276.387 81.1207C275.984 81.1207 275.59 81.0342 275.203 80.8612C274.821 80.6881 274.503 80.4245 274.249 80.0703C274 79.7161 273.875 79.2694 273.875 78.7301V69.5057ZM282.825 81.1932C282.052 81.1932 281.37 80.998 280.778 80.6076C280.187 80.2132 279.724 79.6578 279.39 78.9414C279.056 78.221 278.889 77.3698 278.889 76.3878C278.889 75.4138 279.056 74.5687 279.39 73.8523C279.724 73.1359 280.189 72.5825 280.784 72.1921C281.38 71.8017 282.068 71.6065 282.849 71.6065C283.453 71.6065 283.93 71.7071 284.28 71.9084C284.634 72.1056 284.904 72.331 285.089 72.5845C285.278 72.834 285.425 73.0393 285.529 73.2003H285.65V68.6364H287.075V81H285.699V79.5753H285.529C285.425 79.7443 285.276 79.9576 285.083 80.2152C284.89 80.4687 284.614 80.6961 284.256 80.8974C283.897 81.0946 283.421 81.1932 282.825 81.1932ZM283.018 79.9134C283.59 79.9134 284.073 79.7644 284.467 79.4666C284.861 79.1648 285.161 78.7482 285.366 78.217C285.572 77.6817 285.674 77.0639 285.674 76.3636C285.674 75.6714 285.574 75.0657 285.373 74.5465C285.171 74.0233 284.873 73.6168 284.479 73.3271C284.085 73.0333 283.598 72.8864 283.018 72.8864C282.414 72.8864 281.911 73.0413 281.509 73.3512C281.11 73.6571 280.811 74.0736 280.609 74.6009C280.412 75.1241 280.314 75.7116 280.314 76.3636C280.314 77.0237 280.414 77.6233 280.615 78.1626C280.821 78.6979 281.123 79.1245 281.521 79.4425C281.923 79.7564 282.422 79.9134 283.018 79.9134Z" fill="white"/>
</svg>
