<svg width="385" height="102" viewBox="0 0 385 102" fill="none" xmlns="http://www.w3.org/2000/svg">
<path d="M49.7169 47.0129C51.6345 44.9348 53.5373 42.676 55.4497 40.5635C60.2086 35.3321 65.0512 30.1776 69.9759 25.1022C77.4224 17.5372 85.0291 9.80617 93.6105 3.51527C95.4517 2.25127 98.2057 0.0553082 100.48 0.000797229C103.343 -0.0677545 103.464 4.30237 103.284 6.25767C102.505 14.7371 96.9229 25.1734 90.5489 30.6195C90.2661 29.9305 90.3374 25.3921 90.3303 24.279C90.8207 24.3426 95.5868 24.4008 95.8224 24.3063C95.5295 24.0698 95.0489 24.151 94.6748 24.1821C93.5373 24.1647 92.3997 24.1642 91.2621 24.1809C90.918 24.1142 90.574 24.1976 90.2286 24.0539L90.1185 24.1623C88.1467 24.1431 86.1748 24.1454 84.2031 24.1692C83.3665 24.0958 82.7086 24.08 81.8759 24.1775C82.0654 24.3129 86.3911 21.6432 86.6409 21.6037C88.2701 21.6295 92.138 21.7781 93.6294 21.5994C93.9571 23.1381 89.8206 29.462 90.4032 30.7951C88.2721 32.5743 86.0311 34.6085 83.9446 36.4599C77.3745 42.3306 70.9444 48.3562 64.6601 54.5318C61.1865 57.9358 57.7642 61.3918 54.3948 64.8988C50.8119 68.6161 47.218 72.5362 44.0739 76.6403C43.38 77.5459 42.8609 78.5449 42.2234 79.4744C48.634 78.4831 55.9458 76.2746 60.0138 70.7532C61.4275 68.8342 61.6382 66.7226 61.3183 64.4076C63.797 62.3705 66.321 60.416 68.7978 58.3754C69.9741 57.4056 71.1584 56.4452 72.3501 55.4944C72.895 55.0578 73.9383 54.1892 74.4987 53.8656C79.2381 67.2547 77.1142 80.0161 64.1364 87.8278L62.4464 88.9268C56.9456 92.3625 51.3028 95.8011 45.5293 98.7688C43.8056 99.6549 41.4551 100.799 39.6236 101.384C38.4039 101.787 37.1278 101.991 35.8434 101.989C26.1927 102.019 24.9182 91.9832 24.1647 84.59C23.6105 79.1214 23.3345 73.6282 23.3379 68.1317C24.7244 71.0031 25.4514 73.1462 28.3641 75.0316C27.0885 66.5945 26.8043 60.94 28.0119 52.581C28.1837 51.6249 28.3734 50.672 28.5807 49.723C28.9914 47.4213 29.7033 45.0813 30.3629 42.8414C32.6171 35.1839 35.8028 28.8867 39.8603 22.0875C42.6714 17.2894 45.829 12.7027 49.3078 8.36377C51.2623 5.90764 53.3424 3.2371 55.8051 1.3051C56.61 0.673594 58.8011 -0.211134 59.2566 1.07995C60.4641 4.5034 58.9559 9.07919 58.1173 12.5172C56.5019 17.907 54.4002 23.7972 51.7143 28.6964C50.1859 31.4844 48.0931 34.3864 46.4649 37.125C43.951 41.4183 41.4796 45.7362 39.0506 50.0783C38.7813 50.5704 38.4611 51.1928 38.1698 51.6581L37.0036 53.7918L43.31 53.8044C43.0113 54.3287 42.6686 54.9225 42.3327 55.4204C39.1382 60.157 37.5982 65.05 35.7255 70.3592C37.4938 68.4239 39.31 65.9877 41.0996 63.967C46.2711 58.1277 51.9108 51.9429 57.9626 47.0547C55.3905 47.1591 52.3098 47.0514 49.7169 47.0129Z" fill="white"/>
<path d="M24.1982 76.5898C24.7857 76.625 25.2301 76.6272 25.3198 77.2957C25.2143 77.6495 25.1397 77.6916 24.8784 77.9731C24.5255 78.0388 24.2661 78.0053 23.955 77.8479C23.5398 77.3 23.8081 77.0428 24.1982 76.5898Z" fill="white"/>
<path d="M0 28.2248C1.69407 28.0704 3.85476 28.1705 5.5816 28.1498C5.97051 28.1452 6.06815 28.1432 6.27335 28.3664C5.16889 28.2996 0.576107 28.4415 0 28.2248Z" fill="white"/>
<path d="M51.1194 28.1611L51.2295 28.0527C51.5749 28.1964 51.9189 28.113 52.2631 28.1798C52.8563 28.3177 55.135 28.341 55.6758 28.1809C56.0498 28.1499 56.5304 28.0686 56.8233 28.3051C56.5877 28.3996 51.8216 28.3415 51.3312 28.2779C51.3383 29.3909 51.267 33.9294 51.5498 34.6183L51.4041 34.7939C50.8216 33.4609 51.4381 29.788 51.1104 28.2493L51.1194 28.1611Z" fill="white"/>
<path d="M52.2617 28.1841C53.3992 28.1674 54.5369 28.1679 55.6744 28.1852C55.1337 28.3453 52.855 28.322 52.2617 28.1841Z" fill="white"/>
<path d="M123.182 51V18.2727H136.286C138.694 18.2727 140.702 18.6296 142.311 19.3434C143.919 20.0572 145.128 21.0479 145.938 22.3157C146.748 23.5728 147.153 25.0217 147.153 26.6623C147.153 27.9407 146.897 29.0646 146.385 30.0341C145.874 30.9929 145.171 31.7812 144.276 32.3991C143.392 33.0064 142.38 33.4379 141.24 33.6935V34.0131C142.486 34.0664 143.653 34.418 144.74 35.0678C145.837 35.7177 146.726 36.6286 147.408 37.8004C148.09 38.9616 148.431 40.3466 148.431 41.9553C148.431 43.6918 147.999 45.2418 147.137 46.6055C146.284 47.9585 145.022 49.0291 143.349 49.8175C141.677 50.6058 139.615 51 137.165 51H123.182ZM130.102 45.343H135.743C137.671 45.343 139.077 44.9755 139.961 44.2404C140.846 43.4947 141.288 42.5039 141.288 41.2681C141.288 40.3626 141.069 39.5636 140.633 38.8711C140.196 38.1786 139.573 37.6353 138.763 37.2411C137.964 36.8469 137.01 36.6499 135.903 36.6499H130.102V45.343ZM130.102 31.9677H135.231C136.18 31.9677 137.021 31.8026 137.756 31.4723C138.502 31.1314 139.088 30.652 139.514 30.0341C139.951 29.4162 140.169 28.6758 140.169 27.8129C140.169 26.6303 139.748 25.6768 138.907 24.9524C138.076 24.228 136.893 23.8658 135.359 23.8658H130.102V31.9677ZM159.174 18.2727V51H152.366V18.2727H159.174ZM171.187 51.4634C169.621 51.4634 168.225 51.1918 167 50.6484C165.775 50.0945 164.805 49.2795 164.091 48.2035C163.388 47.1168 163.037 45.7638 163.037 44.1445C163.037 42.7809 163.287 41.6357 163.788 40.7088C164.289 39.782 164.97 39.0362 165.833 38.4716C166.696 37.907 167.676 37.4808 168.774 37.1932C169.882 36.9055 171.043 36.7031 172.257 36.5859C173.685 36.4368 174.835 36.2983 175.709 36.1705C176.583 36.032 177.216 35.8295 177.611 35.5632C178.005 35.2969 178.202 34.9027 178.202 34.3807V34.2848C178.202 33.2727 177.882 32.4897 177.243 31.9357C176.615 31.3817 175.72 31.1048 174.558 31.1048C173.333 31.1048 172.358 31.3764 171.634 31.9197C170.91 32.4524 170.43 33.1236 170.196 33.9332L163.9 33.4219C164.219 31.9304 164.848 30.6413 165.785 29.5547C166.723 28.4574 167.932 27.6158 169.413 27.0298C170.904 26.4332 172.63 26.1349 174.59 26.1349C175.954 26.1349 177.259 26.2947 178.506 26.6143C179.763 26.9339 180.876 27.4293 181.845 28.1005C182.825 28.7717 183.598 29.6346 184.162 30.6893C184.727 31.7333 185.009 32.9851 185.009 34.4446V51H178.553V47.5962H178.362C177.968 48.3633 177.44 49.0398 176.78 49.6257C176.119 50.201 175.325 50.6538 174.399 50.984C173.472 51.3036 172.401 51.4634 171.187 51.4634ZM173.136 46.7653C174.138 46.7653 175.022 46.5682 175.789 46.174C176.556 45.7692 177.158 45.2259 177.595 44.544C178.031 43.8622 178.25 43.0898 178.25 42.2269V39.6222C178.037 39.7607 177.744 39.8885 177.371 40.0057C177.009 40.1122 176.599 40.2134 176.14 40.3093C175.682 40.3945 175.224 40.4744 174.766 40.549C174.308 40.6129 173.893 40.6715 173.52 40.7248C172.721 40.842 172.023 41.0284 171.426 41.2841C170.83 41.5398 170.366 41.886 170.036 42.3228C169.706 42.7489 169.541 43.2816 169.541 43.9208C169.541 44.8477 169.876 45.5561 170.547 46.0462C171.229 46.5256 172.092 46.7653 173.136 46.7653ZM200.942 51.4794C198.427 51.4794 196.265 50.9467 194.454 49.8814C192.653 48.8054 191.268 47.3139 190.299 45.407C189.34 43.5 188.861 41.3054 188.861 38.8232C188.861 36.3089 189.345 34.1037 190.315 32.2074C191.295 30.3004 192.685 28.8143 194.486 27.7489C196.286 26.6729 198.427 26.1349 200.91 26.1349C203.051 26.1349 204.926 26.5238 206.535 27.3015C208.143 28.0792 209.416 29.1712 210.354 30.5774C211.291 31.9837 211.808 33.6349 211.904 35.5312H205.48C205.299 34.3061 204.819 33.3207 204.042 32.5749C203.275 31.8185 202.268 31.4403 201.021 31.4403C199.967 31.4403 199.045 31.728 198.257 32.3033C197.479 32.8679 196.872 33.6935 196.435 34.7802C195.998 35.8668 195.78 37.1825 195.78 38.7273C195.78 40.2933 195.993 41.625 196.419 42.7223C196.856 43.8196 197.469 44.6559 198.257 45.2312C199.045 45.8065 199.967 46.0941 201.021 46.0941C201.799 46.0941 202.497 45.9343 203.115 45.6147C203.743 45.2951 204.26 44.8317 204.665 44.2244C205.08 43.6065 205.352 42.8661 205.48 42.0032H211.904C211.797 43.8782 211.286 45.5295 210.37 46.957C209.464 48.3739 208.213 49.4819 206.615 50.2809C205.017 51.0799 203.126 51.4794 200.942 51.4794ZM221.991 43.9368L222.007 35.771H222.998L230.86 26.4545H238.675L228.112 38.7912H226.498L221.991 43.9368ZM215.823 51V18.2727H222.631V51H215.823ZM231.164 51L223.941 40.3093L228.479 35.4993L239.138 51H231.164ZM241.703 18.2727H250.236L259.249 40.2614H259.633L268.645 18.2727H277.179V51H270.467V29.6985H270.195L261.726 50.8402H257.156L248.686 29.6186H248.415V51H241.703V18.2727ZM289.312 51.4634C287.746 51.4634 286.35 51.1918 285.125 50.6484C283.9 50.0945 282.93 49.2795 282.216 48.2035C281.513 47.1168 281.162 45.7638 281.162 44.1445C281.162 42.7809 281.412 41.6357 281.913 40.7088C282.414 39.782 283.095 39.0362 283.958 38.4716C284.821 37.907 285.801 37.4808 286.899 37.1932C288.007 36.9055 289.168 36.7031 290.382 36.5859C291.81 36.4368 292.96 36.2983 293.834 36.1705C294.708 36.032 295.341 35.8295 295.736 35.5632C296.13 35.2969 296.327 34.9027 296.327 34.3807V34.2848C296.327 33.2727 296.007 32.4897 295.368 31.9357C294.74 31.3817 293.845 31.1048 292.683 31.1048C291.458 31.1048 290.483 31.3764 289.759 31.9197C289.035 32.4524 288.555 33.1236 288.321 33.9332L282.025 33.4219C282.344 31.9304 282.973 30.6413 283.91 29.5547C284.848 28.4574 286.057 27.6158 287.538 27.0298C289.029 26.4332 290.755 26.1349 292.715 26.1349C294.079 26.1349 295.384 26.2947 296.631 26.6143C297.888 26.9339 299.001 27.4293 299.97 28.1005C300.95 28.7717 301.723 29.6346 302.287 30.6893C302.852 31.7333 303.134 32.9851 303.134 34.4446V51H296.678V47.5962H296.487C296.093 48.3633 295.565 49.0398 294.905 49.6257C294.244 50.201 293.45 50.6538 292.524 50.984C291.597 51.3036 290.526 51.4634 289.312 51.4634ZM291.261 46.7653C292.263 46.7653 293.147 46.5682 293.914 46.174C294.681 45.7692 295.283 45.2259 295.72 44.544C296.156 43.8622 296.375 43.0898 296.375 42.2269V39.6222C296.162 39.7607 295.869 39.8885 295.496 40.0057C295.134 40.1122 294.724 40.2134 294.265 40.3093C293.807 40.3945 293.349 40.4744 292.891 40.549C292.433 40.6129 292.018 40.6715 291.645 40.7248C290.846 40.842 290.148 41.0284 289.551 41.2841C288.955 41.5398 288.491 41.886 288.161 42.3228C287.831 42.7489 287.666 43.2816 287.666 43.9208C287.666 44.8477 288.001 45.5561 288.672 46.0462C289.354 46.5256 290.217 46.7653 291.261 46.7653ZM321.032 26.4545V31.5682H306.251V26.4545H321.032ZM309.606 20.5739H316.414V43.4574C316.414 44.0859 316.51 44.576 316.702 44.9276C316.893 45.2685 317.16 45.5082 317.501 45.6467C317.852 45.7852 318.257 45.8544 318.715 45.8544C319.035 45.8544 319.354 45.8278 319.674 45.7745C319.993 45.7106 320.238 45.6626 320.409 45.6307L321.48 50.6964C321.139 50.8029 320.659 50.9254 320.041 51.0639C319.423 51.2131 318.672 51.3036 317.788 51.3356C316.148 51.3995 314.709 51.1811 313.474 50.6804C312.248 50.1797 311.295 49.402 310.613 48.3473C309.931 47.2926 309.596 45.9609 309.606 44.3523V20.5739ZM338.083 26.4545V31.5682H323.301V26.4545H338.083ZM326.657 20.5739H333.465V43.4574C333.465 44.0859 333.561 44.576 333.752 44.9276C333.944 45.2685 334.21 45.5082 334.551 45.6467C334.903 45.7852 335.308 45.8544 335.766 45.8544C336.085 45.8544 336.405 45.8278 336.725 45.7745C337.044 45.7106 337.289 45.6626 337.46 45.6307L338.53 50.6964C338.189 50.8029 337.71 50.9254 337.092 51.0639C336.474 51.2131 335.723 51.3036 334.839 51.3356C333.198 51.3995 331.76 51.1811 330.524 50.6804C329.299 50.1797 328.346 49.402 327.664 48.3473C326.982 47.2926 326.646 45.9609 326.657 44.3523V20.5739ZM353 51.4794C350.475 51.4794 348.302 50.968 346.48 49.9453C344.669 48.9119 343.274 47.4524 342.294 45.5668C341.314 43.6705 340.824 41.4279 340.824 38.8391C340.824 36.3143 341.314 34.0984 342.294 32.1914C343.274 30.2844 344.653 28.7983 346.433 27.733C348.222 26.6676 350.321 26.1349 352.729 26.1349C354.348 26.1349 355.855 26.396 357.251 26.918C358.657 27.4293 359.882 28.2017 360.926 29.2351C361.981 30.2685 362.801 31.5682 363.387 33.1342C363.973 34.6896 364.266 36.5114 364.266 38.5994V40.4691H343.54V36.2504H357.858C357.858 35.2702 357.645 34.402 357.219 33.6456C356.793 32.8892 356.202 32.2979 355.445 31.8718C354.7 31.435 353.831 31.2166 352.841 31.2166C351.807 31.2166 350.891 31.4563 350.092 31.9357C349.304 32.4045 348.686 33.0384 348.238 33.8374C347.791 34.6257 347.562 35.5046 347.551 36.4741V40.4851C347.551 41.6996 347.775 42.7489 348.222 43.6332C348.68 44.5174 349.325 45.1992 350.156 45.6786C350.987 46.158 351.972 46.3977 353.112 46.3977C353.869 46.3977 354.561 46.2912 355.19 46.0781C355.818 45.8651 356.356 45.5455 356.804 45.1193C357.251 44.6932 357.592 44.1712 357.826 43.5533L364.123 43.9688C363.803 45.4815 363.148 46.8026 362.157 47.9318C361.177 49.0504 359.909 49.924 358.354 50.5526C356.809 51.1705 355.025 51.4794 353 51.4794ZM368.269 51V26.4545H374.869V30.7372H375.125C375.572 29.2138 376.323 28.0632 377.378 27.2855C378.433 26.4972 379.647 26.103 381.021 26.103C381.362 26.103 381.73 26.1243 382.124 26.1669C382.518 26.2095 382.865 26.2681 383.163 26.3427V32.3832C382.843 32.2873 382.401 32.2021 381.836 32.1275C381.272 32.0529 380.755 32.0156 380.286 32.0156C379.285 32.0156 378.39 32.234 377.602 32.6708C376.824 33.0969 376.206 33.6935 375.748 34.4606C375.301 35.2276 375.077 36.1119 375.077 37.1133V51H368.269Z" fill="white"/>
<path d="M122.27 64.0341V60.9091H144.088V64.0341H134.94V90H131.417V64.0341H122.27ZM155.054 90.4545C152.952 90.4545 151.138 89.9905 149.613 89.0625C148.098 88.125 146.929 86.8182 146.105 85.142C145.291 83.4564 144.883 81.4962 144.883 79.2614C144.883 77.0265 145.291 75.0568 146.105 73.3523C146.929 71.6383 148.075 70.303 149.542 69.3466C151.02 68.3807 152.743 67.8977 154.713 67.8977C155.849 67.8977 156.971 68.0871 158.079 68.4659C159.187 68.8447 160.196 69.4602 161.105 70.3125C162.014 71.1553 162.738 72.2727 163.278 73.6648C163.818 75.0568 164.088 76.7708 164.088 78.8068V80.2273H147.27V77.3295H160.679C160.679 76.0985 160.433 75 159.94 74.0341C159.457 73.0682 158.766 72.3059 157.866 71.7472C156.976 71.1884 155.925 70.9091 154.713 70.9091C153.378 70.9091 152.222 71.2405 151.247 71.9034C150.281 72.5568 149.538 73.4091 149.017 74.4602C148.496 75.5114 148.236 76.6383 148.236 77.8409V79.7727C148.236 81.4205 148.52 82.8172 149.088 83.9631C149.666 85.0994 150.466 85.9659 151.488 86.5625C152.511 87.1496 153.7 87.4432 155.054 87.4432C155.934 87.4432 156.73 87.3201 157.44 87.0739C158.16 86.8182 158.78 86.4394 159.301 85.9375C159.822 85.4261 160.224 84.7917 160.508 84.0341L163.747 84.9432C163.406 86.0417 162.833 87.0076 162.028 87.8409C161.223 88.6648 160.229 89.3087 159.045 89.7727C157.862 90.2273 156.531 90.4545 155.054 90.4545ZM178.051 90.4545C176.006 90.4545 174.244 89.9716 172.767 89.0057C171.29 88.0398 170.153 86.7093 169.358 85.0142C168.562 83.3191 168.165 81.3826 168.165 79.2045C168.165 76.9886 168.572 75.0331 169.386 73.3381C170.21 71.6335 171.356 70.303 172.824 69.3466C174.301 68.3807 176.024 67.8977 177.994 67.8977C179.528 67.8977 180.911 68.1818 182.142 68.75C183.373 69.3182 184.381 70.1136 185.167 71.1364C185.953 72.1591 186.441 73.3523 186.631 74.7159H183.278C183.023 73.7216 182.454 72.8409 181.574 72.0739C180.702 71.2973 179.528 70.9091 178.051 70.9091C176.744 70.9091 175.598 71.25 174.613 71.9318C173.638 72.6042 172.876 73.5559 172.327 74.7869C171.787 76.0085 171.517 77.4432 171.517 79.0909C171.517 80.7765 171.782 82.2443 172.312 83.4943C172.852 84.7443 173.61 85.715 174.585 86.4062C175.57 87.0975 176.725 87.4432 178.051 87.4432C178.922 87.4432 179.713 87.2917 180.423 86.9886C181.133 86.6856 181.735 86.25 182.227 85.6818C182.72 85.1136 183.07 84.4318 183.278 83.6364H186.631C186.441 84.9242 185.972 86.0843 185.224 87.1165C184.486 88.1392 183.506 88.9536 182.284 89.5597C181.072 90.1562 179.661 90.4545 178.051 90.4545ZM194.883 76.875V90H191.531V60.9091H194.883V71.5909H195.167C195.679 70.464 196.446 69.5691 197.469 68.9062C198.501 68.2339 199.874 67.8977 201.588 67.8977C203.075 67.8977 204.377 68.196 205.494 68.7926C206.612 69.3797 207.478 70.2841 208.094 71.5057C208.719 72.7178 209.031 74.2614 209.031 76.1364V90H205.679V76.3636C205.679 74.6307 205.229 73.2907 204.329 72.3438C203.439 71.3873 202.203 70.9091 200.622 70.9091C199.523 70.9091 198.539 71.1411 197.667 71.6051C196.806 72.0691 196.124 72.7462 195.622 73.6364C195.13 74.5265 194.883 75.6061 194.883 76.875ZM218.516 76.875V90H215.164V68.1818H218.403V71.5909H218.687C219.198 70.483 219.974 69.5928 221.016 68.9205C222.058 68.2386 223.403 67.8977 225.05 67.8977C226.528 67.8977 227.82 68.2008 228.928 68.8068C230.036 69.4034 230.898 70.3125 231.513 71.5341C232.129 72.7462 232.437 74.2803 232.437 76.1364V90H229.084V76.3636C229.084 74.6496 228.639 73.3144 227.749 72.358C226.859 71.392 225.637 70.9091 224.084 70.9091C223.014 70.9091 222.058 71.1411 221.215 71.6051C220.382 72.0691 219.724 72.7462 219.241 73.6364C218.758 74.5265 218.516 75.6061 218.516 76.875ZM247.426 90.4545C245.456 90.4545 243.728 89.9858 242.241 89.0483C240.764 88.1108 239.609 86.7992 238.775 85.1136C237.952 83.428 237.54 81.4583 237.54 79.2045C237.54 76.9318 237.952 74.9479 238.775 73.2528C239.609 71.5578 240.764 70.2415 242.241 69.304C243.728 68.3665 245.456 67.8977 247.426 67.8977C249.396 67.8977 251.119 68.3665 252.596 69.304C254.083 70.2415 255.238 71.5578 256.062 73.2528C256.896 74.9479 257.312 76.9318 257.312 79.2045C257.312 81.4583 256.896 83.428 256.062 85.1136C255.238 86.7992 254.083 88.1108 252.596 89.0483C251.119 89.9858 249.396 90.4545 247.426 90.4545ZM247.426 87.4432C248.922 87.4432 250.153 87.0597 251.119 86.2926C252.085 85.5256 252.8 84.517 253.264 83.267C253.728 82.017 253.96 80.6629 253.96 79.2045C253.96 77.7462 253.728 76.3873 253.264 75.1278C252.8 73.8684 252.085 72.8504 251.119 72.0739C250.153 71.2973 248.922 70.9091 247.426 70.9091C245.93 70.9091 244.699 71.2973 243.733 72.0739C242.767 72.8504 242.052 73.8684 241.588 75.1278C241.124 76.3873 240.892 77.7462 240.892 79.2045C240.892 80.6629 241.124 82.017 241.588 83.267C242.052 84.517 242.767 85.5256 243.733 86.2926C244.699 87.0597 245.93 87.4432 247.426 87.4432ZM265.782 60.9091V90H262.43V60.9091H265.782ZM280.785 90.4545C278.816 90.4545 277.087 89.9858 275.601 89.0483C274.123 88.1108 272.968 86.7992 272.135 85.1136C271.311 83.428 270.899 81.4583 270.899 79.2045C270.899 76.9318 271.311 74.9479 272.135 73.2528C272.968 71.5578 274.123 70.2415 275.601 69.304C277.087 68.3665 278.816 67.8977 280.785 67.8977C282.755 67.8977 284.479 68.3665 285.956 69.304C287.443 70.2415 288.598 71.5578 289.422 73.2528C290.255 74.9479 290.672 76.9318 290.672 79.2045C290.672 81.4583 290.255 83.428 289.422 85.1136C288.598 86.7992 287.443 88.1108 285.956 89.0483C284.479 89.9858 282.755 90.4545 280.785 90.4545ZM280.785 87.4432C282.282 87.4432 283.513 87.0597 284.479 86.2926C285.444 85.5256 286.159 84.517 286.623 83.267C287.087 82.017 287.319 80.6629 287.319 79.2045C287.319 77.7462 287.087 76.3873 286.623 75.1278C286.159 73.8684 285.444 72.8504 284.479 72.0739C283.513 71.2973 282.282 70.9091 280.785 70.9091C279.289 70.9091 278.058 71.2973 277.092 72.0739C276.126 72.8504 275.411 73.8684 274.947 75.1278C274.483 76.3873 274.251 77.7462 274.251 79.2045C274.251 80.6629 274.483 82.017 274.947 83.267C275.411 84.517 276.126 85.5256 277.092 86.2926C278.058 87.0597 279.289 87.4432 280.785 87.4432ZM304.596 98.6364C302.976 98.6364 301.584 98.428 300.42 98.0114C299.255 97.6042 298.284 97.0644 297.508 96.392C296.741 95.7292 296.13 95.0189 295.675 94.2614L298.346 92.3864C298.649 92.7841 299.032 93.2386 299.496 93.75C299.96 94.2708 300.595 94.7206 301.4 95.0994C302.214 95.4877 303.279 95.6818 304.596 95.6818C306.357 95.6818 307.811 95.2557 308.956 94.4034C310.102 93.5511 310.675 92.2159 310.675 90.3977V85.9659H310.391C310.145 86.3636 309.795 86.8561 309.34 87.4432C308.895 88.0208 308.251 88.5369 307.408 88.9915C306.575 89.4366 305.448 89.6591 304.028 89.6591C302.266 89.6591 300.685 89.2424 299.283 88.4091C297.891 87.5758 296.788 86.3636 295.974 84.7727C295.169 83.1818 294.766 81.25 294.766 78.9773C294.766 76.7424 295.159 74.7964 295.945 73.1392C296.731 71.4725 297.825 70.1847 299.226 69.2756C300.628 68.357 302.247 67.8977 304.084 67.8977C305.505 67.8977 306.632 68.1345 307.465 68.608C308.308 69.072 308.952 69.6023 309.397 70.1989C309.851 70.786 310.202 71.2689 310.448 71.6477H310.789V68.1818H314.028V90.625C314.028 92.5 313.601 94.0246 312.749 95.1989C311.906 96.3826 310.77 97.2491 309.34 97.7983C307.92 98.357 306.338 98.6364 304.596 98.6364ZM304.482 86.6477C305.827 86.6477 306.963 86.34 307.891 85.7244C308.819 85.1089 309.525 84.2235 310.008 83.0682C310.491 81.9129 310.732 80.5303 310.732 78.9205C310.732 77.3485 310.495 75.9612 310.022 74.7585C309.548 73.5559 308.848 72.6136 307.92 71.9318C306.992 71.25 305.846 70.9091 304.482 70.9091C303.062 70.9091 301.878 71.2689 300.931 71.9886C299.993 72.7083 299.288 73.6742 298.814 74.8864C298.35 76.0985 298.118 77.4432 298.118 78.9205C298.118 80.4356 298.355 81.7756 298.829 82.9403C299.312 84.0956 300.022 85.0047 300.959 85.6676C301.906 86.321 303.081 86.6477 304.482 86.6477ZM320.164 90V68.1818H323.516V90H320.164ZM321.868 64.5455C321.215 64.5455 320.652 64.3229 320.178 63.8778C319.714 63.4328 319.482 62.8977 319.482 62.2727C319.482 61.6477 319.714 61.1127 320.178 60.6676C320.652 60.2225 321.215 60 321.868 60C322.522 60 323.081 60.2225 323.545 60.6676C324.018 61.1127 324.255 61.6477 324.255 62.2727C324.255 62.8977 324.018 63.4328 323.545 63.8778C323.081 64.3229 322.522 64.5455 321.868 64.5455ZM338.804 90.4545C336.702 90.4545 334.888 89.9905 333.363 89.0625C331.848 88.125 330.679 86.8182 329.855 85.142C329.041 83.4564 328.633 81.4962 328.633 79.2614C328.633 77.0265 329.041 75.0568 329.855 73.3523C330.679 71.6383 331.825 70.303 333.292 69.3466C334.77 68.3807 336.493 67.8977 338.463 67.8977C339.599 67.8977 340.721 68.0871 341.829 68.4659C342.937 68.8447 343.946 69.4602 344.855 70.3125C345.764 71.1553 346.488 72.2727 347.028 73.6648C347.568 75.0568 347.838 76.7708 347.838 78.8068V80.2273H331.02V77.3295H344.429C344.429 76.0985 344.183 75 343.69 74.0341C343.207 73.0682 342.516 72.3059 341.616 71.7472C340.726 71.1884 339.675 70.9091 338.463 70.9091C337.128 70.9091 335.972 71.2405 334.997 71.9034C334.031 72.5568 333.288 73.4091 332.767 74.4602C332.246 75.5114 331.986 76.6383 331.986 77.8409V79.7727C331.986 81.4205 332.27 82.8172 332.838 83.9631C333.416 85.0994 334.216 85.9659 335.238 86.5625C336.261 87.1496 337.45 87.4432 338.804 87.4432C339.684 87.4432 340.48 87.3201 341.19 87.0739C341.91 86.8182 342.53 86.4394 343.051 85.9375C343.572 85.4261 343.974 84.7917 344.258 84.0341L347.497 84.9432C347.156 86.0417 346.583 87.0076 345.778 87.8409C344.973 88.6648 343.979 89.3087 342.795 89.7727C341.612 90.2273 340.281 90.4545 338.804 90.4545ZM368.392 73.0682L365.381 73.9205C365.191 73.4186 364.912 72.9309 364.542 72.4574C364.183 71.9744 363.69 71.5767 363.065 71.2642C362.44 70.9517 361.64 70.7955 360.665 70.7955C359.329 70.7955 358.217 71.1032 357.327 71.7188C356.446 72.3248 356.006 73.0966 356.006 74.0341C356.006 74.8674 356.309 75.5256 356.915 76.0085C357.521 76.4915 358.468 76.8939 359.756 77.2159L362.994 78.0114C364.945 78.4848 366.398 79.2093 367.355 80.1847C368.311 81.1506 368.79 82.3958 368.79 83.9205C368.79 85.1705 368.43 86.2879 367.71 87.2727C367 88.2576 366.006 89.0341 364.727 89.6023C363.449 90.1705 361.962 90.4545 360.267 90.4545C358.041 90.4545 356.2 89.9716 354.741 89.0057C353.283 88.0398 352.36 86.6288 351.971 84.7727L355.153 83.9773C355.456 85.1515 356.029 86.0322 356.872 86.6193C357.724 87.2064 358.837 87.5 360.21 87.5C361.773 87.5 363.013 87.1686 363.932 86.5057C364.86 85.8333 365.324 85.0284 365.324 84.0909C365.324 83.3333 365.059 82.6989 364.528 82.1875C363.998 81.6667 363.184 81.2784 362.085 81.0227L358.449 80.1705C356.451 79.697 354.983 78.9631 354.045 77.9688C353.117 76.965 352.653 75.7102 352.653 74.2045C352.653 72.9735 352.999 71.8845 353.69 70.9375C354.391 69.9905 355.343 69.2472 356.545 68.7074C357.757 68.1676 359.131 67.8977 360.665 67.8977C362.824 67.8977 364.519 68.3712 365.75 69.3182C366.99 70.2652 367.871 71.5152 368.392 73.0682Z" fill="#61F50C"/>
</svg>
